#N canvas 55 250 590 429 10;
#X obj 127 49 dumpOSC 12000;
#X obj 36 103 prepend set;
#X msg 40 129 /bloco3 bang;
#X obj 147 112 list trim;
#X obj 166 149 route /bloco0 /bloco1 /bloco2 /bloco3;
#X obj 165 170 bng 15 250 50 0 empty empty empty 17 7 0 10 -262144
-1 -1;
#X obj 219 172 bng 15 250 50 0 empty empty empty 17 7 0 10 -262144
-1 -1;
#X obj 274 172 bng 15 250 50 0 empty empty empty 17 7 0 10 -262144
-1 -1;
#X obj 328 174 bng 15 250 50 0 empty empty empty 17 7 0 10 -262144
-1 -1;
#X obj 202 319 fluid~;
#X msg 323 302 load \$1;
#X obj 323 280 openpanel;
#X obj 323 260 bng 15 250 50 0 empty empty empty 0 -6 0 8 -260818 -1
-1;
#X msg 197 294 \$3 \$1 \$2;
#X obj 205 358 output~;
#X obj 197 272 pack 0 0 1;
#X obj 199 243 makenote 127 500;
#N canvas 0 0 450 300 notas 0;
#X obj 39 59 inlet;
#X obj 37 105 + 1;
#X obj 38 131 * 12;
#X obj 37 154 + 36;
#X obj 96 59 inlet;
#X obj 94 105 + 1;
#X obj 95 131 * 12;
#X obj 155 60 inlet;
#X obj 153 106 + 1;
#X obj 149 82 random 4;
#X obj 154 132 * 12;
#X obj 212 60 inlet;
#X obj 210 106 + 1;
#X obj 206 82 random 4;
#X obj 211 132 * 12;
#X obj 61 214 outlet;
#X obj 33 81 random 5;
#X obj 95 82 random 3;
#X obj 94 154 + 55;
#X obj 153 154 + 42;
#X obj 210 155 + 38;
#X connect 0 0 16 0;
#X connect 1 0 2 0;
#X connect 2 0 3 0;
#X connect 3 0 15 0;
#X connect 4 0 17 0;
#X connect 5 0 6 0;
#X connect 6 0 18 0;
#X connect 7 0 9 0;
#X connect 8 0 10 0;
#X connect 9 0 8 0;
#X connect 10 0 19 0;
#X connect 11 0 13 0;
#X connect 12 0 14 0;
#X connect 13 0 12 0;
#X connect 14 0 20 0;
#X connect 16 0 1 0;
#X connect 17 0 5 0;
#X connect 18 0 15 0;
#X connect 19 0 15 0;
#X connect 20 0 15 0;
#X restore 201 219 pd notas;
#X connect 0 0 1 0;
#X connect 0 0 3 0;
#X connect 1 0 2 0;
#X connect 3 0 4 0;
#X connect 4 0 5 0;
#X connect 4 1 6 0;
#X connect 4 2 7 0;
#X connect 4 3 8 0;
#X connect 5 0 17 0;
#X connect 6 0 17 1;
#X connect 7 0 17 2;
#X connect 8 0 17 3;
#X connect 9 0 14 0;
#X connect 9 1 14 1;
#X connect 10 0 9 0;
#X connect 11 0 10 0;
#X connect 12 0 11 0;
#X connect 13 0 9 0;
#X connect 15 0 13 0;
#X connect 16 0 15 0;
#X connect 16 1 15 1;
#X connect 17 0 16 0;
